<svg xmlns="http://www.w3.org/2000/svg" xmlns:xlink="http://www.w3.org/1999/xlink" viewBox="0 0 202.98 130.98"><defs><style>.cls-1{fill:none;}.cls-2{clip-path:url(#clip-path);}.cls-3{fill:#3e88c8;}.cls-4{fill:#fff;}.cls-5{fill:#e9454e;}</style><clipPath id="clip-path"><rect class="cls-1" width="202.98" height="130.98" rx="26.75"/></clipPath></defs><title>Risorsa 5@350x</title><g id="Livello_2" data-name="Livello 2"><g id="Livello_1-2" data-name="Livello 1"><g class="cls-2"><rect class="cls-3" width="202.98" height="130.98"/><path class="cls-4" d="M176.23,0h-.92L1.25,112.32A26.76,26.76,0,0,0,26.75,131h.91L201.73,18.66A26.76,26.76,0,0,0,176.23,0Z"/><path class="cls-4" d="M201.73,112.32,27.66,0h-.91A26.76,26.76,0,0,0,1.25,18.66L175.31,131h.92A26.76,26.76,0,0,0,201.73,112.32Z"/><rect class="cls-4" x="81.49" width="40" height="130.98"/><path class="cls-5" d="M16.81,1.92A26.81,26.81,0,0,0,4.53,11.85L186.17,129.06a26.81,26.81,0,0,0,12.28-9.93Z"/><path class="cls-5" d="M186.17,1.92,4.53,119.13a26.81,26.81,0,0,0,12.28,9.93L198.45,11.85A26.81,26.81,0,0,0,186.17,1.92Z"/><rect class="cls-4" y="45.49" width="202.98" height="40"/><rect class="cls-5" y="52.99" width="202.98" height="25"/><rect class="cls-5" x="88.99" width="25" height="130.98"/></g></g></g></svg>