<svg id="Livello_1" data-name="Livello 1" xmlns="http://www.w3.org/2000/svg" xmlns:xlink="http://www.w3.org/1999/xlink" viewBox="0 0 282.43 138.12"><defs><style>.cls-1,.cls-3,.cls-5,.cls-6,.cls-7{fill:none;}.cls-2{clip-path:url(#clip-path);}.cls-3,.cls-5{stroke:#e74553;}.cls-3,.cls-5,.cls-6,.cls-7{stroke-linecap:round;stroke-width:1.71px;}.cls-3{stroke-miterlimit:10;}.cls-4{clip-path:url(#clip-path-2);}.cls-5,.cls-6,.cls-7{stroke-linejoin:round;}.cls-6{stroke:#0aa5df;}.cls-7{stroke:#f8b64a;}.cls-8{fill:#0aa5df;}.cls-9{fill:#eeeded;}.cls-10{fill:#e74553;}</style><clipPath id="clip-path"><rect class="cls-1" x="-282.4" y="-51.18" width="282.37" height="299.05"/></clipPath><clipPath id="clip-path-2"><rect class="cls-1" x="0.06" y="-51.18" width="282.37" height="299.05"/></clipPath></defs><title>illu</title><g class="cls-2"><line class="cls-3" x1="-114.4" y1="128.21" x2="-0.03" y2="128.21"/></g><g class="cls-4"><path class="cls-5" d="M52.4,68.9V67.73a8.88,8.88,0,0,1,8.88-8.87h79.05a11.79,11.79,0,0,1,10.16,5.81l10.07,17.09a6.28,6.28,0,0,0,3.68,2.85l21,6a7.25,7.25,0,0,1,5.26,7v11.93a4.89,4.89,0,0,1-4.88,4.88h-7.87"/><path class="cls-3" d="M52.4,95v14.4a4.91,4.91,0,0,0,4.91,4.91H68.78"/><line class="cls-3" x1="150.53" y1="114.35" x2="95.02" y2="114.35"/><line class="cls-3" x1="81.6" y1="67.13" x2="142.62" y2="67.13"/><line class="cls-3" x1="127.23" y1="67.13" x2="127.23" y2="107.69"/><line class="cls-3" x1="146.56" y1="84.32" x2="146.56" y2="105.57"/><line class="cls-3" x1="127.23" y1="84.16" x2="150.53" y2="84.16"/><line class="cls-3" x1="90.25" y1="67.13" x2="90.25" y2="104.15"/><line class="cls-3" x1="116.53" y1="90.53" x2="121.67" y2="90.53"/><line class="cls-3" x1="132.6" y1="90.53" x2="137.74" y2="90.53"/><line class="cls-6" x1="35.38" y1="75.15" x2="62.52" y2="75.15"/><line class="cls-6" x1="25.74" y1="82.12" x2="58.83" y2="82.12"/><line class="cls-6" x1="36.66" y1="89.09" x2="55.13" y2="89.09"/><line class="cls-3" x1="210.32" y1="128.21" x2="210.32" y2="66.44"/><line class="cls-5" x1="226.41" y1="105.11" x2="226.41" y2="128.21"/><line class="cls-5" x1="226.41" y1="91.47" x2="226.41" y2="97.27"/><path class="cls-7" d="M180.71,41.4a11.11,11.11,0,0,1,5.53-11.54,11.09,11.09,0,1,0-.05,21.86,10.8,10.8,0,0,0,3.55-1.26A11.11,11.11,0,0,1,180.71,41.4Z"/><path class="cls-8" d="M165.76,40.94a5.74,5.74,0,0,1,4.89,2.74,3.47,3.47,0,0,1,5.2,3H156.58a4,4,0,0,1,4-4,4.1,4.1,0,0,1,.94.11,5.73,5.73,0,0,1,4.2-1.82m0-1.72A7.51,7.51,0,0,0,161,41h-.37a5.76,5.76,0,0,0-5.75,5.75,1.71,1.71,0,0,0,1.71,1.71h19.27a1.71,1.71,0,0,0,1.71-1.71,5.2,5.2,0,0,0-5.19-5.18,4.7,4.7,0,0,0-1.12.13,7.41,7.41,0,0,0-5.49-2.42Z"/><path class="cls-9" d="M175.85,46.69a3.47,3.47,0,0,0-5.2-3,5.74,5.74,0,0,0-9.09-.92,4.1,4.1,0,0,0-.94-.11,4,4,0,0,0-4,4Z"/><circle class="cls-10" cx="197.76" cy="39.71" r="1.08"/><circle class="cls-10" cx="149.61" cy="28.95" r="1.08"/><circle class="cls-10" cx="181.49" cy="65.36" r="1.08"/><circle class="cls-10" cx="217.69" cy="33" r="1.08"/><circle class="cls-10" cx="161.19" cy="58.86" r="1.08"/><polyline class="cls-7" points="247.51 105.11 217.54 105.11 217.54 97.27 247.51 97.27"/><line class="cls-7" x1="217.89" y1="113.28" x2="247.51" y2="113.28"/><circle class="cls-5" cx="210.32" cy="58.86" r="7.58"/><circle class="cls-5" cx="78.57" cy="118.08" r="10.13"/><circle class="cls-5" cx="161.03" cy="118.08" r="10.13"/><line class="cls-3" x1="-0.03" y1="128.21" x2="282.43" y2="128.21"/></g></svg>