<svg id="Livello_1" data-name="Livello 1" xmlns="http://www.w3.org/2000/svg" xmlns:xlink="http://www.w3.org/1999/xlink" viewBox="0 0 282.43 138.12"><defs><style>.cls-1,.cls-2,.cls-4,.cls-5,.cls-6{fill:none;}.cls-2,.cls-6{stroke:#e74553;}.cls-2,.cls-4,.cls-5,.cls-6{stroke-linecap:round;stroke-width:1.71px;}.cls-2{stroke-miterlimit:10;}.cls-3{clip-path:url(#clip-path);}.cls-4{stroke:#f8b64a;}.cls-4,.cls-5,.cls-6{stroke-linejoin:round;}.cls-5{stroke:#0aa5df;}.cls-7{clip-path:url(#clip-path-2);}</style><clipPath id="clip-path"><rect class="cls-1" y="-51.18" width="282.37" height="299.05"/></clipPath><clipPath id="clip-path-2"><rect class="cls-1" x="282.46" y="-51.18" width="282.37" height="299.05"/></clipPath></defs><title>illu</title><line class="cls-2" x1="118.35" y1="128.21" x2="593.06" y2="128.21"/><g class="cls-3"><path class="cls-4" d="M89.91,87.18H69.56a4.06,4.06,0,0,1-4.06-4.06h0a4,4,0,0,1,4.06-4.05H83.72"/><line class="cls-2" x1="188.89" y1="92.03" x2="188.89" y2="128.21"/><line class="cls-2" x1="80.37" y1="92.03" x2="80.37" y2="128.21"/><circle class="cls-2" cx="160.69" cy="47.22" r="9.55"/><path class="cls-2" d="M172.12,59.32a14.84,14.84,0,0,1,5.22,11.32V79H144V70.64a14.83,14.83,0,0,1,5.15-11.25"/><circle class="cls-2" cx="111.59" cy="47.22" r="9.55"/><path class="cls-2" d="M100.08,59.39a14.82,14.82,0,0,0-5.14,11.25v2.52"/><line class="cls-5" x1="94.01" y1="106.47" x2="94.01" y2="128.21"/><line class="cls-5" x1="117.12" y1="106.47" x2="117.12" y2="128.21"/><line class="cls-5" x1="134.62" y1="106.47" x2="134.62" y2="128.21"/><path class="cls-5" d="M89.91,103.42V76a2.86,2.86,0,0,1,2.85-2.86h21.5A2.86,2.86,0,0,1,117.12,76v24"/><path class="cls-5" d="M117.12,106.47H93a3,3,0,0,1-3-3"/><line class="cls-5" x1="105.02" y1="106.47" x2="139.88" y2="106.47"/><path class="cls-4" d="M128.24,79.07H199.7a4,4,0,0,1,4.06,4.05h0a4.06,4.06,0,0,1-4.06,4.06H135.79"/><path class="cls-6" d="M123,59.32a14.86,14.86,0,0,1,5.21,11.32v26H144.6a4,4,0,0,1,4,4v27.53"/><line class="cls-2" x1="-22.19" y1="128.21" x2="355.7" y2="128.21"/></g><g class="cls-7"><line class="cls-2" x1="282.46" y1="128.21" x2="355.7" y2="128.21"/></g></svg>