<svg id="Livello_1" data-name="Livello 1" xmlns="http://www.w3.org/2000/svg" xmlns:xlink="http://www.w3.org/1999/xlink" viewBox="0 0 282.43 138.12"><defs><style>.cls-1,.cls-2,.cls-5,.cls-6,.cls-9{fill:none;}.cls-2,.cls-5{stroke:#e74553;}.cls-2,.cls-5,.cls-6,.cls-9{stroke-linecap:round;}.cls-2{stroke-miterlimit:10;}.cls-2,.cls-5,.cls-6{stroke-width:1.71px;}.cls-3{clip-path:url(#clip-path);}.cls-4{clip-path:url(#clip-path-2);}.cls-5,.cls-6,.cls-9{stroke-linejoin:round;}.cls-6{stroke:#f8b64a;}.cls-7{fill:#0aa5df;}.cls-8{fill:#e74553;}.cls-9{stroke:#0aa5df;stroke-width:1.49px;}.cls-10{clip-path:url(#clip-path-3);}</style><clipPath id="clip-path"><rect class="cls-1" x="-282.4" y="-51.18" width="282.37" height="299.05"/></clipPath><clipPath id="clip-path-2"><rect class="cls-1" x="0.06" y="-51.18" width="282.37" height="299.05"/></clipPath><clipPath id="clip-path-3"><rect class="cls-1" x="282.43" y="-51.18" width="282.37" height="299.05"/></clipPath></defs><title>illu</title><line class="cls-2" x1="-446.51" y1="128.21" x2="28.2" y2="128.21"/><g class="cls-3"><line class="cls-2" x1="-176.22" y1="128.21" x2="-0.03" y2="128.21"/></g><g class="cls-4"><line class="cls-5" x1="114.25" y1="128.21" x2="114.25" y2="110"/><line class="cls-5" x1="69.8" y1="128.21" x2="69.8" y2="110"/><path class="cls-2" d="M120,77.25V67.82a5.47,5.47,0,0,0-5.47-5.47H70.59a5.46,5.46,0,0,0-5.47,5.47v36.73A5.45,5.45,0,0,0,70.57,110H87.7"/><line class="cls-2" x1="162.67" y1="110" x2="80.42" y2="110"/><path class="cls-2" d="M181.69,41.64v8A4.36,4.36,0,0,1,177.33,54H148.92a4.34,4.34,0,0,1-3.52-1.79"/><path class="cls-2" d="M144.57,41.82V27.08a4.36,4.36,0,0,1,4.35-4.36h28.41a4.36,4.36,0,0,1,4.36,4.36V34.2"/><line class="cls-5" x1="207.13" y1="128.21" x2="207.13" y2="88.42"/><line class="cls-5" x1="162.67" y1="128.21" x2="162.67" y2="88.42"/><path class="cls-6" d="M104,73.59H88.4a8.92,8.92,0,0,0-8.94,8.94v2.75H112.9V82.53A8.94,8.94,0,0,0,104,73.59Z"/><path class="cls-6" d="M177.76,35.64a7.44,7.44,0,0,1,0-8.57,7.59,7.59,0,0,0-2.28,1.09,7.43,7.43,0,1,0,10.4,10.3A7.43,7.43,0,0,1,177.76,35.64Z"/><path class="cls-7" d="M147.17,42.21A4.54,4.54,0,0,1,151,44.38a2.75,2.75,0,0,1,4.11,2.39H139.91a3.19,3.19,0,0,1,3.19-3.2,3,3,0,0,1,.74.09,4.53,4.53,0,0,1,3.33-1.45m0-1.49a6.07,6.07,0,0,0-3.82,1.36h-.25a4.7,4.7,0,0,0-4.69,4.69,1.5,1.5,0,0,0,1.5,1.49h15.24a1.49,1.49,0,0,0,1.49-1.49,4.24,4.24,0,0,0-4.24-4.24,4.78,4.78,0,0,0-.84.08,6,6,0,0,0-4.39-1.89Z"/><circle class="cls-8" cx="174.59" cy="46.77" r="1.08"/><circle class="cls-8" cx="161.59" cy="37.24" r="1.08"/><circle class="cls-8" cx="150.93" cy="32.27" r="1.08"/><circle class="cls-8" cx="165.97" cy="28.48" r="1.08"/><circle class="cls-8" cx="163.13" cy="49.02" r="1.08"/><path class="cls-9" d="M73.31,98.88v-5a8.62,8.62,0,0,1,8.62-8.62"/><line class="cls-9" x1="80.42" y1="85.28" x2="162.67" y2="85.28"/><path class="cls-2" d="M162.67,110V82.7a5.61,5.61,0,0,1,5.6-5.61h33.25a5.61,5.61,0,0,1,5.61,5.61V110H171.42"/><line class="cls-2" x1="-0.03" y1="128.21" x2="474.68" y2="128.21"/></g><g class="cls-10"><line class="cls-2" x1="282.43" y1="128.21" x2="564.89" y2="128.21"/></g></svg>