<svg id="Livello_1" data-name="Livello 1" xmlns="http://www.w3.org/2000/svg" xmlns:xlink="http://www.w3.org/1999/xlink" viewBox="0 0 282.43 138.12"><defs><style>.cls-1,.cls-3,.cls-5,.cls-6,.cls-7{fill:none;}.cls-2{clip-path:url(#clip-path);}.cls-3,.cls-7{stroke:#e74553;}.cls-3,.cls-5,.cls-6,.cls-7{stroke-linecap:round;stroke-width:1.71px;}.cls-3{stroke-miterlimit:10;}.cls-4{clip-path:url(#clip-path-2);}.cls-5{stroke:#f8b64a;}.cls-5,.cls-6,.cls-7{stroke-linejoin:round;}.cls-6{stroke:#0aa5df;}.cls-8{clip-path:url(#clip-path-3);}</style><clipPath id="clip-path"><rect class="cls-1" x="-282.43" y="-51.18" width="282.37" height="299.05"/></clipPath><clipPath id="clip-path-2"><rect class="cls-1" x="0.03" y="-51.18" width="282.37" height="299.05"/></clipPath><clipPath id="clip-path-3"><rect class="cls-1" x="282.49" y="-51.18" width="282.37" height="299.05"/></clipPath></defs><title>illu</title><g class="cls-2"><line class="cls-3" x1="-282.43" y1="128.21" x2="0.03" y2="128.21"/></g><g class="cls-4"><path class="cls-5" d="M121.79,68l10,20.27c2.42,4.88,8.1,4.88,10.51,0l10.08-20.35"/><rect class="cls-6" x="124" y="92.16" width="27.69" height="17.45" rx="1.25"/><line class="cls-7" x1="131.77" y1="103.12" x2="143.92" y2="103.12"/><line class="cls-7" x1="131.77" y1="98.64" x2="143.92" y2="98.64"/><circle class="cls-7" cx="137.1" cy="48.96" r="17.74"/><path class="cls-7" d="M106.17,128.21V92.45a27.59,27.59,0,0,1,9.56-20.9"/><path class="cls-7" d="M158.34,71.44a27.54,27.54,0,0,1,9.69,21v35.76"/><path class="cls-5" d="M173.69,79.49l8.12,16.4c2,3.94,6.55,3.94,8.51,0l8.15-16.47"/><rect class="cls-6" x="175.48" y="98.85" width="22.4" height="14.12" rx="1.01"/><line class="cls-7" x1="181.76" y1="106.13" x2="191.6" y2="106.13"/><line class="cls-7" x1="83.21" y1="106.13" x2="93.04" y2="106.13"/><circle class="cls-7" cx="186.08" cy="64.09" r="14.35"/><path class="cls-7" d="M203.26,82.28a22.27,22.27,0,0,1,7.84,17v28.94"/><path class="cls-5" d="M100.52,79.49l-8.13,16.4c-2,3.94-6.55,3.94-8.5,0L75.74,79.42"/><rect class="cls-6" x="76.32" y="98.85" width="22.4" height="14.12" rx="1.01" transform="translate(175.05 211.81) rotate(-180)"/><circle class="cls-7" cx="88.13" cy="64.09" r="14.35"/><path class="cls-7" d="M70.94,82.28a22.27,22.27,0,0,0-7.84,17v28.94"/><line class="cls-3" x1="0.03" y1="128.21" x2="106.17" y2="128.21"/><line class="cls-3" x1="168.03" y1="128.21" x2="282.4" y2="128.21"/></g><g class="cls-8"><line class="cls-3" x1="282.4" y1="128.21" x2="564.86" y2="128.21"/></g></svg>