<svg id="Livello_1" data-name="Livello 1" xmlns="http://www.w3.org/2000/svg" xmlns:xlink="http://www.w3.org/1999/xlink" viewBox="0 0 282.43 138.12"><defs><style>.cls-1,.cls-2,.cls-5,.cls-6,.cls-7{fill:none;}.cls-2,.cls-7{stroke:#e74553;}.cls-2,.cls-5,.cls-6,.cls-7{stroke-linecap:round;}.cls-2{stroke-miterlimit:10;}.cls-2,.cls-5,.cls-7{stroke-width:1.71px;}.cls-3{clip-path:url(#clip-path);}.cls-4{clip-path:url(#clip-path-2);}.cls-5{stroke:#f8b64a;}.cls-5,.cls-6,.cls-7{stroke-linejoin:round;}.cls-6{stroke:#0aa5df;stroke-width:1.49px;}.cls-8{clip-path:url(#clip-path-3);}</style><clipPath id="clip-path"><rect class="cls-1" x="-282.43" y="-51.18" width="282.37" height="299.05"/></clipPath><clipPath id="clip-path-2"><rect class="cls-1" x="0.03" y="-51.18" width="282.37" height="299.05"/></clipPath><clipPath id="clip-path-3"><rect class="cls-1" x="282.49" y="-51.18" width="282.37" height="299.05"/></clipPath></defs><title>illu</title><line class="cls-2" x1="-164.08" y1="128.21" x2="310.63" y2="128.21"/><g class="cls-3"><line class="cls-2" x1="-304.62" y1="128.21" x2="73.27" y2="128.21"/></g><g class="cls-4"><line class="cls-2" x1="154.63" y1="16.82" x2="154.45" y2="24.03"/><line class="cls-2" x1="149.37" y1="20.45" x2="149.28" y2="23.91"/><path class="cls-2" d="M128.17,17.41l.2-7.9a1.46,1.46,0,0,1,1.5-1.43L135,8.2a1.49,1.49,0,0,1,1.43,1.51l-.08,2.87"/><line class="cls-2" x1="128.02" y1="23.38" x2="128.21" y2="15.62"/><line class="cls-2" x1="136.04" y1="23.58" x2="136.13" y2="20.12"/><rect class="cls-2" x="128.21" y="12.71" width="26.44" height="6.6" rx="2.51" transform="translate(0.44 -3.52) rotate(1.43)"/><path class="cls-2" d="M128.21,15.68h0a3.32,3.32,0,0,1,3.38-3.22l19.84.5a3.3,3.3,0,0,1,3.21,3.38h0"/><polyline class="cls-5" points="132.54 50.57 132.62 56.01 146.06 55.81"/><line class="cls-5" x1="146.06" y1="55.81" x2="145.98" y2="50.37"/><path class="cls-5" d="M146,52.66l-.11-7.73,1.55,0a1.63,1.63,0,0,0,1.62-1.66l0-3.32-6.63-.69a1,1,0,0,0-1,.53,2.65,2.65,0,0,1-2.26,1.33"/><path class="cls-5" d="M132.54,50.57l-.08-5.45-1.7,0a1.5,1.5,0,0,1-1.52-1.47l-.05-3.47,6.61-.89a1.05,1.05,0,0,1,1,.51,2.61,2.61,0,0,0,2.29,1.26"/><line class="cls-5" x1="132.59" y1="54.35" x2="132.51" y2="48.25"/><path class="cls-5" d="M141.38,39.75a2.62,2.62,0,0,1-2.26,1.34"/><circle class="cls-2" cx="173.35" cy="52.03" r="5.66"/><line class="cls-2" x1="164.73" y1="49.99" x2="162.84" y2="49.54"/><line class="cls-2" x1="183.91" y1="54.47" x2="182.02" y2="54.03"/><line class="cls-2" x1="175.7" y1="41.56" x2="175.26" y2="43.45"/><line class="cls-2" x1="171.25" y1="60.56" x2="170.81" y2="62.45"/><line class="cls-2" x1="165.74" y1="56.71" x2="164.09" y2="57.73"/><line class="cls-2" x1="182.48" y1="46.32" x2="180.83" y2="47.34"/><line class="cls-2" x1="177.93" y1="59.73" x2="178.95" y2="61.38"/><line class="cls-2" x1="167.54" y1="42.99" x2="168.56" y2="44.64"/><path class="cls-2" d="M173.83,46.39a5.66,5.66,0,0,1-1,11.28"/><path class="cls-2" d="M173.12,46.38a5.63,5.63,0,0,1,.71,0l.57.08"/><line class="cls-5" x1="95.41" y1="22.97" x2="93.53" y2="15.58"/><line class="cls-5" x1="95.62" y1="23.72" x2="98.62" y2="35.6"/><path class="cls-5" d="M107.92,11.85l-.7.17c-1.63.42-2.51,2.51-1.31,7.24l.62,2.46a3.06,3.06,0,0,0,3.71,2.21h0l.62-.16"/><line class="cls-5" x1="113.44" y1="33" x2="107.92" y2="11.85"/><path class="cls-5" d="M90,16.38l1.22,4.83a3.52,3.52,0,0,0,6.82-1.73l-1.22-4.83"/><line class="cls-5" x1="98.9" y1="36.68" x2="97.72" y2="32.04"/><line class="cls-5" x1="113.42" y1="33" x2="112.25" y2="28.36"/><line class="cls-6" x1="172.65" y1="31.34" x2="186.67" y2="34.87"/><line class="cls-6" x1="176.39" y1="16.27" x2="190.42" y2="19.8"/><line class="cls-6" x1="179.47" y1="33.06" x2="183.79" y2="15.93"/><path class="cls-6" d="M192,27.71A3.56,3.56,0,1,1,185.07,26"/><path class="cls-6" d="M171,22.43a3.56,3.56,0,0,0,6.91,1.74"/><line class="cls-6" x1="177.93" y1="24.17" x2="176.39" y2="16.27"/><line class="cls-6" x1="176.39" y1="16.27" x2="171.02" y2="22.43"/><line class="cls-6" x1="191.98" y1="27.71" x2="190.44" y2="19.81"/><line class="cls-6" x1="190.44" y1="19.81" x2="185.07" y2="25.97"/><line class="cls-6" x1="171.02" y1="22.43" x2="177.93" y2="24.17"/><line class="cls-6" x1="185.07" y1="25.97" x2="191.98" y2="27.71"/><path class="cls-6" d="M107.34,55.19a1.67,1.67,0,0,1,.56.89,1.69,1.69,0,1,1-3.28.83,1.66,1.66,0,0,1,0-1"/><rect class="cls-6" x="96.06" y="49.02" width="21.05" height="13.76" rx="2.37" transform="translate(-10.45 27.84) rotate(-14.19)"/><path class="cls-6" d="M95.86,56.4l1.45,5.73a3.11,3.11,0,0,0,3.78,2.25l11.58-2.92"/><line class="cls-6" x1="115.87" y1="49.67" x2="117.55" y2="56.31"/><path class="cls-6" d="M102.62,49.81l9.46-2.4a3.12,3.12,0,0,1,3.79,2.26l.84,3.32"/><rect class="cls-6" x="100.71" y="46.42" width="6.76" height="2.97" rx="1.13" transform="translate(-8.57 26.98) rotate(-14.19)"/><path class="cls-6" d="M115.83,50.72A26.11,26.11,0,0,1,95.76,56"/><path class="cls-6" d="M112.08,47.41a3.12,3.12,0,0,1,3.79,2.26l1.84,7.3a3.12,3.12,0,0,1-2.26,3.78l-4.35,1.1"/><path class="cls-2" d="M73.27,128.21l25.09-49a11.69,11.69,0,0,1,10.06-5.75h0l12.79,0a16.82,16.82,0,0,1,8.5,2.28l4.46,2.61h18a6.51,6.51,0,0,1,6.5,6.5h0a6.51,6.51,0,0,1-6.5,6.5H127.76"/><path class="cls-7" d="M163.49,82.74l13.44-9.59a5.6,5.6,0,0,1,3.26-1.05h0A5.63,5.63,0,0,1,183.81,82L162.93,99.52a5.44,5.44,0,0,1-4,1.7H117.5a3.82,3.82,0,0,0-3.64,2.67l-7.65,24.32"/><line class="cls-5" x1="73.99" y1="48.27" x2="80.41" y2="46.95"/><line class="cls-6" x1="77.33" y1="41.97" x2="80.59" y2="42.6"/><line class="cls-2" x1="79.72" y1="53.06" x2="82.28" y2="51.33"/><line class="cls-6" x1="204.49" y1="48.27" x2="198.08" y2="46.95"/><line class="cls-2" x1="201.15" y1="41.97" x2="197.89" y2="42.6"/><line class="cls-5" x1="198.77" y1="53.06" x2="196.2" y2="51.33"/><line class="cls-2" x1="106.21" y1="128.21" x2="282.4" y2="128.21"/><line class="cls-2" x1="0.03" y1="128.21" x2="73.27" y2="128.21"/></g><g class="cls-8"><line class="cls-2" x1="282.4" y1="128.21" x2="757.11" y2="128.21"/></g></svg>